<svg preserveAspectRatio="none" width="100%" height="100%" overflow="visible" style="display: block;" viewBox="0 0 23.2217 25" fill="none" xmlns="http://www.w3.org/2000/svg">
<g id="Icon">
<path id="2" fill-rule="evenodd" clip-rule="evenodd" d="M18.8284 4.3933H8.47271V0H23.2217V14.749H18.8284V4.3933Z" fill="var(--fill-0, #4A6DFF)"/>
<path id="1" fill-rule="evenodd" clip-rule="evenodd" d="M11.8648 18.7936C12.313 18.1228 12.5523 17.334 12.5523 16.5272L16.9456 16.5272C16.9456 18.203 16.4487 19.8411 15.5177 21.2344C14.5867 22.6278 13.2634 23.7138 11.7152 24.355C10.167 24.9963 8.4634 25.1641 6.81984 24.8372C5.17627 24.5103 3.66657 23.7033 2.48163 22.5184C1.29668 21.3334 0.489728 19.8237 0.162804 18.1801C-0.164119 16.5366 0.00367388 14.833 0.644963 13.2848C1.28625 11.7366 2.37223 10.4133 3.76558 9.48231C5.15893 8.55131 6.79706 8.05439 8.47282 8.05439L8.47281 12.4477C7.66596 12.4477 6.87724 12.687 6.20636 13.1352C5.53549 13.5835 5.01261 14.2206 4.70384 14.966C4.39508 15.7115 4.31429 16.5317 4.47169 17.3231C4.6291 18.1144 5.01764 18.8413 5.58816 19.4118C6.15869 19.9824 6.88559 20.3709 7.67693 20.5283C8.46828 20.6857 9.28853 20.6049 10.034 20.2962C10.7794 19.9874 11.4165 19.4645 11.8648 18.7936Z" fill="var(--fill-0, #2EB9FF)"/>
</g>
</svg>
