<svg preserveAspectRatio="none" width="100%" height="100%" overflow="visible" style="display: block;" viewBox="0 0 83.4052 22.4797" fill="none" xmlns="http://www.w3.org/2000/svg">
<g id="Everplan">
<path d="M0 17.5451V0H11.4112V2.66432H3.17834V7.42755H10.8201V10.0919H3.17834V14.8808H11.4797V17.5451H0Z" fill="var(--fill-0, #0D1036)"/>
<path d="M24.0994 4.38628L19.4132 17.5451H15.9865L11.3003 4.38628H14.6072L17.6313 14.1612H17.7684L20.8011 4.38628H24.0994Z" fill="var(--fill-0, #0D1036)"/>
<path d="M29.4521 17.8021C28.1328 17.8021 26.9934 17.528 26.0339 16.9797C25.0801 16.4257 24.3462 15.6433 23.8322 14.6324C23.3181 13.6157 23.0611 12.4192 23.0611 11.0428C23.0611 9.68923 23.3181 8.50128 23.8322 7.47895C24.3519 6.45092 25.0772 5.65133 26.0082 5.0802C26.9391 4.50336 28.0328 4.21494 29.2893 4.21494C30.1003 4.21494 30.8656 4.3463 31.5853 4.60902C32.3106 4.86603 32.9503 5.26582 33.5043 5.8084C34.064 6.35097 34.5037 7.04204 34.8236 7.8816C35.1434 8.71545 35.3033 9.70922 35.3033 10.8629V11.8138H24.5175V9.72349H32.3306C32.3249 9.12952 32.1964 8.60122 31.9451 8.13861C31.6938 7.67028 31.3425 7.3019 30.8913 7.03347C30.4459 6.76504 29.9261 6.63082 29.3321 6.63082C28.6982 6.63082 28.1413 6.78503 27.6616 7.09344C27.1818 7.39614 26.8078 7.79593 26.5393 8.29281C26.2766 8.78398 26.1424 9.3237 26.1367 9.91197V11.7367C26.1367 12.502 26.2766 13.1588 26.5565 13.7071C26.8363 14.2497 27.2275 14.6666 27.7301 14.9579C28.2327 15.2435 28.821 15.3863 29.4949 15.3863C29.9461 15.3863 30.3545 15.3234 30.72 15.1978C31.0855 15.0664 31.4025 14.8751 31.6709 14.6238C31.9394 14.3725 32.1421 14.0612 32.2792 13.69L35.1748 14.0155C34.9921 14.7809 34.6437 15.4491 34.1296 16.0202C33.6213 16.5856 32.9703 17.0254 32.1764 17.3395C31.3825 17.6479 30.4744 17.8021 29.4521 17.8021Z" fill="var(--fill-0, #0D1036)"/>
<path d="M35.7557 17.5451V4.38628H38.7627V6.57942H38.8998C39.1397 5.81982 39.5509 5.23441 40.1335 4.8232C40.7217 4.40627 41.3928 4.19781 42.1467 4.19781C42.318 4.19781 42.5094 4.20637 42.7207 4.22351C42.9377 4.23493 43.1176 4.25492 43.2604 4.28348V7.13627C43.129 7.09058 42.9206 7.0506 42.635 7.01634C42.3551 6.97636 42.0839 6.95637 41.8211 6.95637C41.2557 6.95637 40.7474 7.07916 40.2962 7.32475C39.8507 7.56462 39.4995 7.89873 39.2425 8.32708C38.9855 8.75543 38.857 9.24946 38.857 9.80916V17.5451H35.7557Z" fill="var(--fill-0, #0D1036)"/>
<path d="M43.1495 22.4797V4.38628H46.1994V6.56229H46.3793C46.5392 6.24246 46.7648 5.90263 47.0561 5.54282C47.3473 5.1773 47.7414 4.86603 48.2383 4.60902C48.7352 4.3463 49.3692 4.21494 50.1402 4.21494C51.1568 4.21494 52.0735 4.47481 52.8902 4.99453C53.7126 5.50855 54.3637 6.27101 54.8434 7.28191C55.3289 8.2871 55.5716 9.52074 55.5716 10.9828C55.5716 12.4278 55.3346 13.6557 54.8606 14.6666C54.3865 15.6775 53.7412 16.4486 52.9244 16.9797C52.1077 17.5109 51.1825 17.7764 50.1487 17.7764C49.3948 17.7764 48.7695 17.6508 48.2726 17.3995C47.7757 17.1482 47.3759 16.8455 47.0732 16.4914C46.7762 16.1316 46.5449 15.7918 46.3793 15.4719H46.2508V22.4797H43.1495ZM46.1908 10.9657C46.1908 11.8167 46.3107 12.562 46.5506 13.2017C46.7962 13.8413 47.1475 14.3411 47.6044 14.7009C48.067 15.055 48.6267 15.232 49.2835 15.232C49.9688 15.232 50.5428 15.0493 51.0054 14.6838C51.4681 14.3125 51.8164 13.8071 52.0506 13.1674C52.2905 12.522 52.4104 11.7881 52.4104 10.9657C52.4104 10.149 52.2933 9.42365 52.0592 8.7897C51.825 8.15574 51.4766 7.65886 51.014 7.29905C50.5514 6.93923 49.9745 6.75933 49.2835 6.75933C48.621 6.75933 48.0584 6.93352 47.5958 7.28191C47.1332 7.6303 46.7819 8.11862 46.5421 8.74686C46.3079 9.3751 46.1908 10.1147 46.1908 10.9657Z" fill="var(--fill-0, #0D1036)"/>
<path d="M59.1574 0V17.5451H56.0562V0H59.1574Z" fill="var(--fill-0, #0D1036)"/>
<path d="M63.9618 17.8107C63.128 17.8107 62.377 17.6622 61.7087 17.3652C61.0462 17.0625 60.5208 16.617 60.1324 16.0288C59.7498 15.4405 59.5584 14.7152 59.5584 13.8528C59.5584 13.1103 59.6955 12.4963 59.9696 12.0109C60.2438 11.5254 60.6179 11.137 61.0919 10.8458C61.566 10.5545 62.1 10.3346 62.6939 10.1861C63.2936 10.0319 63.9133 9.92053 64.553 9.852C65.324 9.77204 65.9494 9.70065 66.4291 9.63782C66.9089 9.56929 67.2573 9.46649 67.4743 9.32941C67.697 9.18663 67.8084 8.96675 67.8084 8.66976V8.61836C67.8084 7.97298 67.6171 7.47324 67.2344 7.11914C66.8518 6.76504 66.3006 6.58799 65.581 6.58799C64.8214 6.58799 64.2189 6.75362 63.7734 7.08487C63.3336 7.41613 63.0366 7.80735 62.8824 8.25855L59.9868 7.84733C60.2152 7.04775 60.5922 6.37953 61.1176 5.84266C61.6431 5.30009 62.2856 4.89459 63.0452 4.62616C63.8048 4.35201 64.6444 4.21494 65.5639 4.21494C66.1978 4.21494 66.8289 4.28919 67.4572 4.43768C68.0854 4.58618 68.6594 4.83176 69.1791 5.17444C69.6989 5.51141 70.1158 5.97117 70.4299 6.55372C70.7497 7.13627 70.9097 7.86447 70.9097 8.73829V17.5451H67.9284V15.7375H67.8255C67.6371 16.103 67.3715 16.4457 67.0288 16.7655C66.6918 17.0797 66.2664 17.3338 65.7523 17.528C65.244 17.7165 64.6472 17.8107 63.9618 17.8107ZM64.7671 15.5319C65.3897 15.5319 65.9294 15.4091 66.3863 15.1635C66.8432 14.9122 67.1944 14.581 67.44 14.1697C67.6913 13.7585 67.817 13.3102 67.817 12.8247V11.2741C67.7199 11.3541 67.5543 11.4283 67.3201 11.4969C67.0916 11.5654 66.8346 11.6254 66.5491 11.6768C66.2635 11.7282 65.9808 11.7739 65.7009 11.8138C65.4211 11.8538 65.1783 11.8881 64.9727 11.9166C64.5101 11.9795 64.0961 12.0823 63.7305 12.225C63.365 12.3678 63.0766 12.5677 62.8653 12.8247C62.654 13.076 62.5483 13.4016 62.5483 13.8014C62.5483 14.3725 62.7568 14.8037 63.1737 15.095C63.5906 15.3863 64.1218 15.5319 64.7671 15.5319Z" fill="var(--fill-0, #0D1036)"/>
<path d="M74.958 9.83486V17.5451H71.8568V4.38628H74.821V6.62226H74.9752C75.2779 5.8855 75.7605 5.30009 76.423 4.86603C77.0912 4.43197 77.9165 4.21494 78.8988 4.21494C79.8069 4.21494 80.598 4.40913 81.2719 4.79749C81.9515 5.18586 82.477 5.74843 82.8482 6.48519C83.2252 7.22194 83.4108 8.11576 83.4051 9.16664V17.5451H80.3038V9.64639C80.3038 8.76685 80.0754 8.07864 79.6185 7.58176C79.1673 7.08487 78.5419 6.83643 77.7423 6.83643C77.1997 6.83643 76.7171 6.95637 76.2945 7.19624C75.8776 7.43041 75.5492 7.77023 75.3093 8.21571C75.0751 8.66119 74.958 9.20091 74.958 9.83486Z" fill="var(--fill-0, #0D1036)"/>
</g>
</svg>
