<svg preserveAspectRatio="none" width="100%" height="100%" overflow="visible" style="display: block;" viewBox="0 0 13.3333 13.3333" fill="none" xmlns="http://www.w3.org/2000/svg">
<g id="flame-svgrepo-com 1">
<path id="Vector" fill-rule="evenodd" clip-rule="evenodd" d="M6.20889 6.40553C6.51247 5.97945 6.4786 5.53071 6.26809 4.72352C5.85178 3.12712 6.01755 2.25212 7.45274 1.21619L8.15323 0.710576L8.32266 1.55771C8.50272 2.458 8.79841 3.01483 9.55766 4.0859C9.58782 4.12845 9.58782 4.12845 9.61812 4.17118C10.7118 5.71411 11.1112 6.64423 11.1112 8.33333C11.1112 10.3824 9.03976 12.2222 6.66678 12.2222C4.29367 12.2222 2.22234 10.3827 2.22234 8.33333C2.22234 8.29502 2.22237 8.29618 2.21588 8.12691C2.16569 6.81766 2.40778 5.79298 3.38737 4.68658C3.59434 4.45282 3.8296 4.22815 4.09435 4.01316L4.67879 3.53858L4.95992 4.23698C5.16766 4.75303 5.41106 5.1587 5.68601 5.45639C5.91888 5.70852 6.09164 6.02559 6.20889 6.40553ZM4.21927 5.42314C3.46518 6.27484 3.2859 7.03366 3.32618 8.08434C3.33368 8.27994 3.33345 8.27306 3.33345 8.33333C3.33345 9.73771 4.87989 11.1111 6.66678 11.1111C8.45352 11.1111 10.0001 9.73748 10.0001 8.33333C10.0001 6.92122 9.68441 6.18612 8.71163 4.81371C8.68149 4.7712 8.68149 4.7712 8.65119 4.72846C8.06042 3.89505 7.70827 3.31532 7.4753 2.66695C7.09482 3.12287 7.11719 3.57632 7.34325 4.44314C7.75956 6.03954 7.59379 6.91453 6.1586 7.95046L5.34026 8.54114L5.27892 7.53376C5.23972 6.89013 5.09404 6.45308 4.86978 6.21027C4.64821 5.97037 4.44815 5.68952 4.26875 5.36821C4.25202 5.38647 4.23553 5.40478 4.21927 5.42314Z" fill="var(--fill-0, black)"/>
</g>
</svg>
